<svg width="391" height="301" viewBox="0 0 391 301" fill="none" xmlns="http://www.w3.org/2000/svg">
<path fill-rule="evenodd" clip-rule="evenodd" d="M266.352 6.58299C254.8 -3.27659 237.442 -1.90427 227.582 9.64817C217.723 21.2006 219.095 38.5585 230.648 48.4181L319.207 124H27.5C12.3122 124 0 136.313 0 151.5C0 166.688 12.3122 179 27.5 179H316.864L230.648 252.583C219.095 262.443 217.723 279.8 227.582 291.353C237.442 302.905 254.8 304.278 266.352 294.418L362.449 212.403C380.566 196.941 391 174.318 391 150.501C391 126.683 380.566 104.06 362.449 88.5982L266.352 6.58299Z" fill="white" fill-opacity="0.5"/>
</svg>
