<svg width="110" height="110" viewBox="0 0 110 110" fill="none" xmlns="http://www.w3.org/2000/svg">
<rect y="-0.000488281" width="110" height="110" rx="55" fill="#FFEB00"/>
<path fill-rule="evenodd" clip-rule="evenodd" d="M30.8563 88.6808C29.5308 87.6867 29.2622 85.8063 30.2563 84.4808L75.6313 23.9808C76.6254 22.6554 78.5058 22.3867 79.8313 23.3808C81.1568 24.375 81.4254 26.2554 80.4313 27.5808L35.0563 88.0808C34.0622 89.4063 32.1818 89.675 30.8563 88.6808ZM44.3439 43.4997C46.7256 43.4997 48.6564 41.569 48.6564 39.1872C48.6564 36.8055 46.7256 34.8747 44.3439 34.8747C41.9621 34.8747 40.0314 36.8055 40.0314 39.1872C40.0314 41.569 41.9621 43.4997 44.3439 43.4997ZM44.3439 49.4997C50.0393 49.4997 54.6564 44.8827 54.6564 39.1872C54.6564 33.4918 50.0393 28.8747 44.3439 28.8747C38.6484 28.8747 34.0314 33.4918 34.0314 39.1872C34.0314 44.8827 38.6484 49.4997 44.3439 49.4997ZM69.2814 73.5622C69.2814 75.944 67.3506 77.8747 64.9689 77.8747C62.5871 77.8747 60.6564 75.944 60.6564 73.5622C60.6564 71.1805 62.5871 69.2497 64.9689 69.2497C67.3506 69.2497 69.2814 71.1805 69.2814 73.5622ZM75.2814 73.5622C75.2814 79.2577 70.6643 83.8747 64.9689 83.8747C59.2734 83.8747 54.6564 79.2577 54.6564 73.5622C54.6564 67.8668 59.2734 63.2497 64.9689 63.2497C70.6643 63.2497 75.2814 67.8668 75.2814 73.5622Z" fill="black"/>
</svg>
