<svg width="405" height="434" viewBox="0 0 405 434" fill="none" xmlns="http://www.w3.org/2000/svg">
<path d="M404.658 79.3925C382.443 54.0303 354.936 33.8502 324.074 20.275C293.213 6.69983 259.749 0.060135 226.042 0.82409C192.336 1.58805 159.207 9.73706 128.992 24.6965C98.7773 39.656 72.2121 61.0617 51.1696 87.4043C30.1271 113.747 15.1197 144.385 7.20547 177.158C-0.70873 209.931 -1.33698 244.042 5.36502 277.084C12.067 310.127 25.9361 341.297 45.9943 368.396C66.0525 395.496 91.8114 417.865 121.455 433.927L170.673 343.091C154.317 334.228 140.103 321.885 129.035 306.932C117.968 291.979 110.315 274.78 106.617 256.547C102.919 238.315 103.265 219.493 107.632 201.41C111.999 183.326 120.28 166.42 131.891 151.885C143.502 137.349 158.16 125.538 174.832 117.284C191.504 109.029 209.784 104.533 228.383 104.111C246.982 103.69 265.447 107.353 282.476 114.844C299.505 122.334 314.683 133.47 326.941 147.464L404.658 79.3925Z" fill="white"/>
</svg>
