<svg width="183" height="278" viewBox="0 0 183 278" fill="none" xmlns="http://www.w3.org/2000/svg">
<path d="M213.443 74.0064C203.962 63.1814 192.221 54.5683 179.049 48.7742C165.877 42.9801 151.594 40.1462 137.208 40.4723C122.821 40.7983 108.682 44.2765 95.7855 50.6614C82.8894 57.0463 71.551 66.1825 62.5698 77.4259C53.5885 88.6693 47.1832 101.746 43.8053 115.734C40.4274 129.722 40.1592 144.281 43.0197 158.384C45.8802 172.487 51.7998 185.791 60.3609 197.357C68.922 208.924 79.9163 218.471 92.5685 225.327L117.706 178.933C111.84 175.754 106.743 171.328 102.773 165.965C98.8039 160.602 96.0593 154.434 94.733 147.895C93.4067 141.356 93.5311 134.606 95.0972 128.12C96.6634 121.635 99.6333 115.572 103.797 110.359C107.962 105.146 113.219 100.91 119.198 97.9492C125.177 94.9888 131.733 93.3762 138.403 93.225C145.074 93.0738 151.696 94.3878 157.803 97.0742C163.911 99.7606 169.354 103.754 173.75 108.773L213.443 74.0064Z" fill="white"/>
<rect x="108" y="105" width="65" height="65" rx="32.5" fill="#FFEB00"/>
<path fill-rule="evenodd" clip-rule="evenodd" d="M126.397 157.184C125.734 156.687 125.6 155.747 126.097 155.084L152.909 119.334C153.407 118.671 154.347 118.537 155.009 119.034C155.672 119.531 155.807 120.471 155.309 121.134L128.497 156.884C128 157.547 127.06 157.681 126.397 157.184ZM134.203 131.25C135.912 131.25 137.297 129.865 137.297 128.156C137.297 126.448 135.912 125.062 134.203 125.062C132.495 125.062 131.109 126.448 131.109 128.156C131.109 129.865 132.495 131.25 134.203 131.25ZM134.203 134.25C137.569 134.25 140.297 131.522 140.297 128.156C140.297 124.791 137.569 122.062 134.203 122.062C130.838 122.062 128.109 124.791 128.109 128.156C128.109 131.522 130.838 134.25 134.203 134.25ZM149.484 148.469C149.484 150.177 148.099 151.562 146.391 151.562C144.682 151.562 143.297 150.177 143.297 148.469C143.297 146.76 144.682 145.375 146.391 145.375C148.099 145.375 149.484 146.76 149.484 148.469ZM152.484 148.469C152.484 151.834 149.756 154.562 146.391 154.562C143.025 154.562 140.297 151.834 140.297 148.469C140.297 145.103 143.025 142.375 146.391 142.375C149.756 142.375 152.484 145.103 152.484 148.469Z" fill="black"/>
</svg>
